<svg id="Layer_1" data-name="Layer 1" xmlns="http://www.w3.org/2000/svg" xmlns:xlink="http://www.w3.org/1999/xlink" viewBox="0 0 298 308"><defs><linearGradient id="linear-gradient" x1="277.79" y1="73.39" x2="20.21" y2="222.11" gradientUnits="userSpaceOnUse"><stop offset="0" stop-color="#080d25"/><stop offset="0.48" stop-color="#151a31" stop-opacity="0.96"/><stop offset="1" stop-color="#282e43" stop-opacity="0.9"/></linearGradient></defs><title>logo</title><ellipse cx="149" cy="147.75" rx="149" ry="147.75" fill="url(#linear-gradient)"/><path d="M117.81,173.12v44.46q-23.27-25.12-23.27-61.4a95,95,0,0,1,4.64-30.13L116.1,154c0,.73,0,1.48,0,2.23A79.68,79.68,0,0,0,117.81,173.12Z" transform="translate(-1.5 -1.5)" fill="none"/><text transform="translate(35.42 244.87) scale(0.97 1)" font-size="247.52" fill="#ec9540" stroke="#080d25" stroke-miterlimit="10" font-family="ProductSans-Regular, Product Sans">Y</text><path d="M161.09,69.55V91.1a58.5,58.5,0,0,0-13.81,6.15,64.9,64.9,0,0,0-12.87,10.4Q116.77,126.31,116.1,154l-16.92-27.9a88.8,88.8,0,0,1,37.25-46.67A78.18,78.18,0,0,1,161.09,69.55Z" transform="translate(-1.5 -1.5)" fill="#ec9540" stroke="#080d25" stroke-miterlimit="10" stroke-width="2"/><path d="M263,164.37q0,35.5-20.39,56.58-22.91,25.1-60.25,25.1-35.75,0-60.49-25.57c-.51-.52-1-1-1.48-1.56V174.45A65.08,65.08,0,0,0,137,206q18.54,19.16,45.36,19.17,24.49,0,40.78-14.21t18.79-39H182.36V151.6h79.5A74.38,74.38,0,0,1,263,164.37Z" transform="translate(-1.5 -1.5)" fill="#ec9540" stroke="#080d25" stroke-miterlimit="10"/></svg>