<svg xmlns="http://www.w3.org/2000/svg" xmlns:xlink="http://www.w3.org/1999/xlink" width="1920" height="1080" viewBox="0 0 1920 1080"><defs><linearGradient id="a" x1="0.5" y1="0.5" x2="1" y2="0.008" gradientUnits="objectBoundingBox"><stop offset="0" stop-color="#080d25"/><stop offset="1" stop-color="#282e43"/></linearGradient><clipPath id="b"><rect width="77" height="185" fill="none"/></clipPath></defs><rect width="1920" height="1080" fill="url(#a)"/><g transform="translate(1777 735)" clip-path="url(#b)"><g transform="translate(-617 -194)"><ellipse cx="9.5" cy="8.5" rx="9.5" ry="8.5" transform="translate(617 194)" fill="#282e43"/><ellipse cx="9.5" cy="8.5" rx="9.5" ry="8.5" transform="translate(671 194)" fill="#282e43"/><ellipse cx="9.5" cy="8.5" rx="9.5" ry="8.5" transform="translate(725 194)" fill="#282e43"/></g><g transform="translate(-617 -139)"><ellipse cx="9.5" cy="8.5" rx="9.5" ry="8.5" transform="translate(617 194)" fill="#282e43"/><ellipse cx="9.5" cy="8.5" rx="9.5" ry="8.5" transform="translate(671 194)" fill="#282e43"/><ellipse cx="9.5" cy="8.5" rx="9.5" ry="8.5" transform="translate(725 194)" fill="#282e43"/></g><g transform="translate(-617 -84)"><ellipse cx="9.5" cy="8.5" rx="9.5" ry="8.5" transform="translate(617 194)" fill="#282e43"/><ellipse cx="9.5" cy="8.5" rx="9.5" ry="8.5" transform="translate(671 194)" fill="#282e43"/><ellipse cx="9.5" cy="8.5" rx="9.5" ry="8.5" transform="translate(725 194)" fill="#282e43"/></g><g transform="translate(-617 -29)"><ellipse cx="9.5" cy="8.5" rx="9.5" ry="8.5" transform="translate(617 194)" fill="#282e43"/><ellipse cx="9.5" cy="8.5" rx="9.5" ry="8.5" transform="translate(671 194)" fill="#282e43"/><ellipse cx="9.5" cy="8.5" rx="9.5" ry="8.5" transform="translate(725 194)" fill="#282e43"/></g></g><g transform="matrix(0.839, 0.545, -0.545, 0.839, 485.441, -796.708)"><line x2="26" y2="25" transform="translate(1590.5 183.5)" fill="none" stroke="#282e43" stroke-width="10"/><line x1="26" y2="25" transform="translate(1590.5 183.5)" fill="none" stroke="#282e43" stroke-width="10"/></g><g transform="translate(-101.663 1093.929) rotate(-45)"><g transform="translate(1553 345)" fill="none" stroke="#282e43" stroke-width="8"><ellipse cx="31.289" cy="32.165" rx="31.289" ry="32.165" stroke="none"/><ellipse cx="31.289" cy="32.165" rx="27.289" ry="28.165" fill="none"/></g><g transform="translate(1559.564 359.004)" fill="none" stroke="#282e43" stroke-width="8"><ellipse cx="22.1" cy="25.163" rx="22.1" ry="25.163" stroke="none"/><ellipse cx="22.1" cy="25.163" rx="18.1" ry="21.163" fill="none"/></g></g><g transform="translate(0 391)"><g transform="translate(960 329)" fill="none" stroke="#282e43" stroke-width="8"><ellipse cx="39.5" cy="42" rx="39.5" ry="42" stroke="none"/><ellipse cx="39.5" cy="42" rx="35.5" ry="38" fill="none"/></g><g transform="translate(982 329)" fill="none" stroke="#282e43" stroke-width="8"><ellipse cx="39.5" cy="42" rx="39.5" ry="42" stroke="none"/><ellipse cx="39.5" cy="42" rx="35.5" ry="38" fill="none"/></g><g transform="translate(1004 329)" fill="none" stroke="#282e43" stroke-width="8"><ellipse cx="39.5" cy="42" rx="39.5" ry="42" stroke="none"/><ellipse cx="39.5" cy="42" rx="35.5" ry="38" fill="none"/></g><g transform="translate(1031 329)" fill="none" stroke="#282e43" stroke-width="8"><ellipse cx="39.5" cy="42" rx="39.5" ry="42" stroke="none"/><ellipse cx="39.5" cy="42" rx="35.5" ry="38" fill="none"/></g></g></svg>