<svg id="Layer_1" data-name="Layer 1" xmlns="http://www.w3.org/2000/svg" xmlns:xlink="http://www.w3.org/1999/xlink" viewBox="0 0 1925.95 1092.5"><defs><linearGradient id="linear-gradient" x1="-315.34" y1="1344.77" x2="-315.34" y2="1345.76" gradientTransform="matrix(1919.91, 0, 0, -1080, 606381.61, 1453426)" gradientUnits="userSpaceOnUse"><stop offset="0" stop-color="#1f2334"/><stop offset="1" stop-color="#04081f"/></linearGradient><clipPath id="clip-path"><rect x="132.42" y="868.74" width="127.4" height="212.13" fill="none"/></clipPath><linearGradient id="linear-gradient-2" x1="-313.5" y1="1344.4" x2="-314.63" y2="1344.93" gradientTransform="matrix(167.73, 0, 0, -264.42, 53000.83, 356476.3)" gradientUnits="userSpaceOnUse"><stop offset="0" stop-color="#212134"/><stop offset="1" stop-color="#252534" stop-opacity="0"/></linearGradient><clipPath id="clip-path-2"><rect x="79.75" y="506.39" width="120.64" height="86.52" fill="none"/></clipPath><clipPath id="clip-path-3"><polygon points="1879.72 940.73 1699.05 1014.23 1654.11 902.22 1834.78 828.72 1879.72 940.73" fill="none"/></clipPath><clipPath id="clip-path-4"><rect x="126.64" y="73.44" width="34.05" height="64.56" transform="translate(32.97 245.58) rotate(-87.99)" fill="none"/></clipPath><clipPath id="clip-path-5"><polygon points="199.54 105.59 113.98 128.69 98.07 68.94 183.63 45.84 199.54 105.59" fill="none"/></clipPath><clipPath id="clip-path-6"><rect x="1692.54" y="529.26" width="199.35" height="22.17" fill="none"/></clipPath><clipPath id="clip-path-7"><rect x="1719.63" y="557.55" width="199.35" height="22.17" fill="none"/></clipPath><clipPath id="clip-path-8"><rect x="776.28" y="381.78" width="199.35" height="22.17" fill="none"/></clipPath><clipPath id="clip-path-9"><rect x="746.18" y="407.03" width="199.35" height="22.17" fill="none"/></clipPath></defs><title>banner-background</title><g id="Group_11" data-name="Group 11"><rect id="Rectangle_3" data-name="Rectangle 3" width="1925.95" height="1090.98" fill="url(#linear-gradient)"/><ellipse id="Ellipse_9" data-name="Ellipse 9" cx="96.8" cy="481.85" rx="69.72" ry="76.77" fill="#282e43" opacity="0.33" style="isolation:isolate"/><path id="Path_2" data-name="Path 2" d="M2.46,630.73c90.39-40.05,279-142.07,279-142.07s398.1,450.59,328.34,600.78c1,2.11-607.86,4.51-607.37,0s0-191.59,0-304.6S2,627.34,2.46,630.73Z" fill="none" stroke="#5a5e7a"/><g id="Group_2" data-name="Group 2"><g clip-path="url(#clip-path)"><g id="Repeat_Grid_1" data-name="Repeat Grid 1"><ellipse id="Ellipse_6" data-name="Ellipse 6" cx="141.95" cy="877.33" rx="9.53" ry="8.59" fill="#282e43"/><ellipse id="Ellipse_3" data-name="Ellipse 3" cx="196.12" cy="877.33" rx="9.53" ry="8.59" fill="#282e43"/><ellipse id="Ellipse_5" data-name="Ellipse 5" cx="250.29" cy="877.33" rx="9.53" ry="8.59" fill="#282e43"/><ellipse id="Ellipse_6-2" data-name="Ellipse 6-2" cx="141.95" cy="914.7" rx="9.53" ry="8.59" fill="#282e43"/><ellipse id="Ellipse_3-2" data-name="Ellipse 3-2" cx="196.12" cy="914.7" rx="9.53" ry="8.59" fill="#282e43"/><ellipse id="Ellipse_5-2" data-name="Ellipse 5-2" cx="250.29" cy="914.7" rx="9.53" ry="8.59" fill="#282e43"/><ellipse id="Ellipse_6-3" data-name="Ellipse 6-3" cx="141.95" cy="952.08" rx="9.53" ry="8.59" fill="#282e43"/><ellipse id="Ellipse_3-3" data-name="Ellipse 3-3" cx="196.12" cy="952.08" rx="9.53" ry="8.59" fill="#282e43"/><ellipse id="Ellipse_5-3" data-name="Ellipse 5-3" cx="250.29" cy="952.08" rx="9.53" ry="8.59" fill="#282e43"/><ellipse id="Ellipse_6-4" data-name="Ellipse 6-4" cx="141.95" cy="989.46" rx="9.53" ry="8.59" fill="#282e43"/><ellipse id="Ellipse_3-4" data-name="Ellipse 3-4" cx="196.12" cy="989.46" rx="9.53" ry="8.59" fill="#282e43"/><ellipse id="Ellipse_5-4" data-name="Ellipse 5-4" cx="250.29" cy="989.46" rx="9.53" ry="8.59" fill="#282e43"/><ellipse id="Ellipse_6-5" data-name="Ellipse 6-5" cx="141.95" cy="1026.83" rx="9.53" ry="8.59" fill="#282e43"/><ellipse id="Ellipse_3-5" data-name="Ellipse 3-5" cx="196.12" cy="1026.83" rx="9.53" ry="8.59" fill="#282e43"/><ellipse id="Ellipse_5-5" data-name="Ellipse 5-5" cx="250.29" cy="1026.83" rx="9.53" ry="8.59" fill="#282e43"/><ellipse id="Ellipse_6-6" data-name="Ellipse 6-6" cx="141.95" cy="1064.21" rx="9.53" ry="8.59" fill="#282e43"/><ellipse id="Ellipse_3-6" data-name="Ellipse 3-6" cx="196.12" cy="1064.21" rx="9.53" ry="8.59" fill="#282e43"/><ellipse id="Ellipse_5-6" data-name="Ellipse 5-6" cx="250.29" cy="1064.21" rx="9.53" ry="8.59" fill="#282e43"/></g></g></g><g id="Path_7" data-name="Path 7"><path d="M363,1090.24,585.37,664.85l204.16,425.39Z" fill="#23263a"/><path d="M585.35,666,363.88,1089.74H788.73L585.35,666m0-2.24,204.94,427H362.21Z" fill="#5a5e7a"/></g><line id="Line_2" data-name="Line 2" x1="476.71" y1="869.25" x2="593.07" y2="1090.47" fill="none" stroke="#5a5e7a"/><line id="Line_3" data-name="Line 3" x1="533.85" y1="975.31" x2="665.26" y2="833.89" fill="none" stroke="#5a5e7a"/><line id="Line_4" data-name="Line 4" x1="546.88" y1="1000.57" x2="678.3" y2="859.14" fill="none" stroke="#5a5e7a"/><line id="Line_5" data-name="Line 5" x1="559.92" y1="1028.85" x2="691.33" y2="887.43" fill="none" stroke="#5a5e7a"/><path id="Path_6" data-name="Path 6" d="M6.08,639.83C6.47,639,96.3,718.67,96.3,868.74S8.88,1080.88,6.08,1084s0-76.25,0-226.32S5.69,640.69,6.08,639.83Z" fill="#282e43"/><path id="Path_3" data-name="Path 3" d="M307.53,1091C324.65,1053.61,453,823.87,453,823.87l22.82,47.38L363.15,1091Z" fill="url(#linear-gradient-2)"/><g clip-path="url(#clip-path-2)"><g id="Component_2_7" data-name="Component 2 7" opacity="0.63"><path id="Path_4" data-name="Path 4" d="M80.25,592.1c-.14-86.25,81.28-107.13,119.69-61.88C200.32,531,80.25,592.1,80.25,592.1Z" fill="#282e43"/></g></g><rect id="Rectangle_4" data-name="Rectangle 4" x="1049.69" y="488.92" width="35.11" height="35.36" fill="#303551"/><g id="Group_3" data-name="Group 3"><rect id="Rectangle_7" data-name="Rectangle 7" x="1705.26" y="218.2" width="61.19" height="61.62" fill="#303551"/><rect id="Rectangle_8" data-name="Rectangle 8" x="1718.3" y="231.33" width="35.11" height="35.36" fill="#111529"/></g><g id="Group_4" data-name="Group 4"><polygon id="Rectangle_7-2" data-name="Rectangle 7-2" points="533.42 294.44 559.97 320.28 534.31 347.01 507.76 321.17 533.42 294.44" fill="#303551"/><polygon id="Rectangle_8-2" data-name="Rectangle 8-2" points="533.61 305.64 548.84 320.47 534.12 335.81 518.89 320.98 533.61 305.64" fill="#111529"/></g><rect id="Rectangle_5" data-name="Rectangle 5" x="861.21" y="667.72" width="21.07" height="21.21" fill="#303551"/><rect id="Rectangle_6" data-name="Rectangle 6" x="1140.93" y="731.36" width="15.05" height="15.15" fill="#303551"/><g id="Group_7" data-name="Group 7"><g clip-path="url(#clip-path-3)"><g id="Component_2_8" data-name="Component 2 8" opacity="0.63"><path id="Path_4-2" data-name="Path 4-2" d="M1834.62,829.67c45.21,112.08-66.2,189-147.5,153.62C1686.14,982.52,1834.62,829.67,1834.62,829.67Z" fill="#282e43"/></g></g><ellipse id="Ellipse_10" data-name="Ellipse 10" cx="1707.77" cy="859.14" rx="22.57" ry="22.73" fill="#1f2439"/></g><g id="Group_6" data-name="Group 6"><g clip-path="url(#clip-path-4)"><g id="Component_2_9" data-name="Component 2 9" opacity="0.63"><path id="Path_4-3" data-name="Path 4-3" d="M176.31,100.48C155.56,132,114.9,120,110.68,111.73,111,111.52,176.31,100.48,176.31,100.48Z" fill="#282e43"/></g></g><g clip-path="url(#clip-path-5)"><g id="Component_2_10" data-name="Component 2 10" opacity="0.63"><path id="Path_4-4" data-name="Path 4-4" d="M183.35,46.76c15.85,59.14-37.9,89-73.33,65.3C109.61,111.61,183.35,46.76,183.35,46.76Z" fill="none" stroke="#707070"/></g></g><ellipse id="Ellipse_11" data-name="Ellipse 11" cx="134.85" cy="58.15" rx="9.41" ry="9.48" fill="#1f2439"/></g><g clip-path="url(#clip-path-6)"><g id="Component_3_5" data-name="Component 3 5"><path id="Path_5" data-name="Path 5" d="M1692.94,550.54l15.79-20.4,15.18,20.4,16-20.4,12.65,20.4,15.08-20.4,16,20.4,16.25-20.4,15.95,20.4,16.84-20.4,13.89,20.4,15.36-20.4s11,15.3,15.66,20.4c.94,1.37,13.88-20.4,13.88-20.4" fill="none" stroke="#303551"/></g></g><g clip-path="url(#clip-path-7)"><g id="Component_3_6" data-name="Component 3 6"><path id="Path_5-2" data-name="Path 5-2" d="M1720,578.82l15.79-20.4,15.19,20.4,16-20.4,12.66,20.4,15.07-20.4,16,20.4,16.25-20.4,16,20.4,16.84-20.4,13.89,20.4,15.36-20.4s11,15.3,15.66,20.4c.94,1.37,13.88-20.4,13.88-20.4" fill="none" stroke="#303551"/></g></g><g id="Group_5" data-name="Group 5"><g clip-path="url(#clip-path-8)"><g id="Component_3_7" data-name="Component 3 7"><path id="Path_5-3" data-name="Path 5-3" d="M776.67,403.06l15.79-20.4,15.19,20.4,16-20.4,12.66,20.4,15.07-20.4,16,20.4,16.25-20.4,15.95,20.4,16.84-20.4,13.89,20.4,15.36-20.4s11,15.3,15.66,20.4c.94,1.37,13.88-20.4,13.88-20.4" fill="none" stroke="#303551"/></g></g><g clip-path="url(#clip-path-9)"><g id="Component_3_8" data-name="Component 3 8"><path id="Path_5-4" data-name="Path 5-4" d="M746.58,428.31l15.79-20.4,15.18,20.4,16-20.4,12.65,20.4,15.08-20.4,15.95,20.4,16.25-20.4,16,20.4,16.84-20.4,13.89,20.4,15.36-20.4s11,15.3,15.66,20.4c.94,1.37,13.88-20.4,13.88-20.4" fill="none" stroke="#303551"/></g></g></g></g></svg>